<svg xmlns="http://www.w3.org/2000/svg" xmlns:xlink="http://www.w3.org/1999/xlink" viewBox="0 0 246.84 289.46"><defs><style>.cls-1{isolation:isolate;}.cls-2{mix-blend-mode:multiply;fill:url(#linear-gradient);}</style><linearGradient id="linear-gradient" x1="215.05" y1="-52.88" x2="3.9" y2="317.88" gradientUnits="userSpaceOnUse"><stop offset="0" stop-color="#f9dfea"/><stop offset="1" stop-color="#ec96ca"/></linearGradient></defs><g class="cls-1"><g id="Layer_2" data-name="Layer 2"><g id="Graphic_Elements" data-name="Graphic Elements"><path class="cls-2" d="M242.72,136.57a44.53,44.53,0,0,0-12.12,2,46.1,46.1,0,0,0-18.55,11.13c-3.35,3.3-6.65,7.54-8.12,12.19a23.51,23.51,0,0,0-4.34-2.4,30.27,30.27,0,0,1,2.1-9.6c3.81-9.74,12-16.75,20.76-22,4.53-2.74,9.31-5.37,13-9.3,3.32-3.61,5.76-8.37,5.31-13.39-.08-.88-1.46-.89-1.38,0,.52,5.77-3,11-7.18,14.58s-9,5.93-13.54,8.89a55.58,55.58,0,0,0-11.06,9.4,333.93,333.93,0,0,0,21.54-38.52C241.17,73.6,248.78,45,246.41,16.44A42.75,42.75,0,0,0,243.8,4.88a7.6,7.6,0,0,0-11.22-3.66,81,81,0,0,0-15.1,12.54c-4.89,5.18-9.23,11.13-15.42,14.66-7.38,4.2-16.81,4.6-23.13,10.26-5.68,5.09-7.78,13.57-14.13,17.79-4.16,2.76-9.89,3.5-12.67,7.66-2.34,3.48-1.73,8.26-3.8,11.92-2.73,4.81-9,6.07-14.46,6.83-1.74,4.06.6,8.06,3.43,11.45,10.34,12.36,21.76,24,29.29,38.34a59.52,59.52,0,0,1,4.33,10.67,104.56,104.56,0,0,0-21.51-32.53C135.58,96.61,118.92,86,102.2,75.9,77.74,61.09,52.08,46.74,23.37,44.11c-2.9,2.6-2,8.21,0,11.27S28.33,61,29,64.75c1,5.31-2.85,10.76-3.15,16.28-.34,6.28,3.84,11.29,5.33,17.2,2,7.75-1.3,17.16-7.69,22.18-3.72,2.93-.93,10.06,1.56,13.77s6.15,6.27,9.24,9.41,5.74,7.32,5.39,12.12c-.2,2.66-1.29,5.21-2,7.81s-1.75,6.62.43,7.62c12.43,5.7,8.14-12.14,55.61-9.29-2.2.19-4.38.46-6.56.85-11.41,2.05-22.13,6.8-32.73,11.51-3.48,1.54-7.23,3.35-8.88,6.78-1.49,3.13-.87,6.94-2.27,10.12s-4.67,5.26-7.49,7.42-5.6,5.17-5.35,8.72,3.35,6.08,6,8.48,5.12,5.92,3.83,9.23c-1.23,3.16-5.12,4.12-7.94,6-5.51,3.73-6.58,12.55-2.12,17.5,1.42,1.58,3.3,2.8,4.32,4.68s.62,4.79-1.44,5.37c-2.85,4.82-4.63,8.36-9.94,10.14s-10.93,3-15.64,6-8.43,8.54-7.28,14c6.28,1.87,13.09-.13,18.87-3.22s11-7.23,16.83-10.1c21.48-10.51,47.59-2.36,70.73-8.39,13.84-3.61,27.29-11.79,35.2-23.71,5.83-1.58,10.06-6.67,12.79-12.06s4.36-11.29,7.24-16.6c1.19-2.2,2.6-4.3,3.84-6.46-3.31,13.79-5.41,29.05-15,38-1.37,1.28-.15,3.88,1.8,4.76a8.46,8.46,0,0,0,6-.08c7.78-2.45,13.46-8.27,17.57-14.7S183,222.63,186.83,216c2.94-5.11,6.54-10,7.63-15.88s-.18-12.82,4.12-16.94c3.8-3.64,11.32-4.23,12.52-9.31.57-2.41-.62-5.09-2.27-7.29a20.94,20.94,0,0,0-3.69-3.78,21.73,21.73,0,0,1,2.29-5.17,41.08,41.08,0,0,1,15.38-14.23A44.1,44.1,0,0,1,242.72,138C243.61,137.92,243.61,136.54,242.72,136.57ZM198.23,159a22,22,0,0,0-3.95-1q3.43-5,6.79-10A32,32,0,0,0,198.23,159Z"/></g></g></g></svg>