<svg xmlns="http://www.w3.org/2000/svg" xmlns:xlink="http://www.w3.org/1999/xlink" viewBox="0 0 266.11 290.02"><defs><style>.cls-1{isolation:isolate;}.cls-2{mix-blend-mode:multiply;fill:url(#linear-gradient);}</style><linearGradient id="linear-gradient" x1="133.06" y1="52.86" x2="133.06" y2="285.75" gradientUnits="userSpaceOnUse"><stop offset="0" stop-color="#efa4be"/><stop offset="1" stop-color="#c1a9c8"/></linearGradient></defs><g class="cls-1"><g id="Layer_2" data-name="Layer 2"><g id="Graphic_Elements" data-name="Graphic Elements"><path class="cls-2" d="M265.33,121.74c-1.6-3-5-3.39-8.31-3.38-6.26,0-13,1.29-19.73,2.73-11.28,2.42-22.72,5.36-34.16,8.3s-23.39,6.21-35.54,15.36c-.1-.28-.2-.57-.32-.86a4.22,4.22,0,0,0-.36-.66,1.42,1.42,0,0,1-.26-.77,6.42,6.42,0,0,0-.12-.88l-.09-.37c.2-.57.34-1,.54-1.59h0a9.26,9.26,0,0,0,3.13-4.7c.83-3.19-.49-6.28-2.43-8.79,3.13-6.61,7.94-12.43,13-17.68,7.25-7.55,15.49-14.52,21.32-23.3a.74.74,0,0,0,.33-.26,14,14,0,0,0,1.68-3c2.91-5.29,4.6-11.47,2.91-17.43a.8.8,0,0,0-.86-1c-1.86.22-2.54,2.2-2.47,3.82.08,2,.35,4.06.37,6.11a20.48,20.48,0,0,1-1.28,7.81,68.4,68.4,0,0,1-10.29,13.32c-7.52,8-16,15.1-22.17,24.24a53.25,53.25,0,0,0-3.57,6.11l-.35-.38c-3.39-3.5-7.08-3.62-10.44-2.05-4.27-8.47-10.13-16-15.18-24a68.13,68.13,0,0,1-7.51-15.06,20.29,20.29,0,0,1,.26-7.91c.41-2,1.06-3.93,1.54-5.92.38-1.58.1-3.65-1.69-4.23a.8.8,0,0,0-1,.78c-2.82,5.51-2.36,11.91-.52,17.66A13.88,13.88,0,0,0,132.78,87a.68.68,0,0,0,.28.32c4,9.74,10.74,18.17,16.4,27a99.46,99.46,0,0,1,5.08,8.82,23.06,23.06,0,0,0-6.79,6.77,1.52,1.52,0,0,1-1.22.68,13.71,13.71,0,0,0-6.64,1.8c-2.69-18.25-13.09-34.71-23.22-50.34-10-15.42-20-30.84-30.48-45.92-6.28-9-12.75-18-20.25-26-4-4.3-8.61-8.49-14.34-9.8s-12.75,1.37-14.34,7c-1.1,3.91.55,8,1.6,11.9S40.13,28,37,30.64c-1.15,1-2.63,1.52-3.79,2.49-2.12,1.76-2.9,4.73-2.71,7.48a29.66,29.66,0,0,0,2.18,7.94c3,8.07,5.27,16.84,3.23,25.19C34.68,79,31.73,84,32.4,89.29c.73,5.81,5.69,10.67,5.52,16.53-.11,3.74-2.29,7.76-.39,11,1.17,2,3.53,2.9,5.73,3.62,5.12,1.68,10.33,3.11,15.59,4.29-.16.18-.31.37-.47.56-3.91,1.72-8.58,2-12.68,2.87-6.62,1.46-12.55,4.9-15,11.49a3,3,0,0,0,.25,2.88A37.38,37.38,0,0,0,23.1,167c.24,5.41,1.67,10.86.67,16.18A18.28,18.28,0,0,1,15,195.48c-3.29,1.88-7.12,2.7-10.32,4.74s-5.74,6-4.29,9.53,5.67,4.59,7.6,7.68c2.57,4.11.45,10.56,4.26,13.56,2.66,2.09,6.69,1,9.31-1.18s4.43-5.13,7-7.32,6.54-3.45,9.3-1.5c1.44,1,2.3,2.74,3.79,3.69,3.08,2,7.06-.18,10.07-2.27l45.46-31.64c5.78-4,11.65-8.13,16-13.7a47.66,47.66,0,0,0,2.95-4.32,4.3,4.3,0,0,0,1.26-1.13,39.36,39.36,0,0,1,8.47-8.38c.5-.37,1-.72,1.55-1.08a40.65,40.65,0,0,1-3.91,11.13,1.55,1.55,0,0,1-.57.62,24.24,24.24,0,0,0-3.39,2.44l-.23.22a8.39,8.39,0,0,0-2.83,1.93c-2.6,2.68-4.41,6.53-6,9.88a92.47,92.47,0,0,0-4.23,10.79,197.2,197.2,0,0,0-5.37,22.62c-1.09,5.56,4.84,8.49,9,5.26a89.9,89.9,0,0,0,23.17-26.69c4-7.06,6.75-15.87,11.69-22.67l.12-.15q1.74-1.9,3.52-3.77a71.43,71.43,0,0,1-4.3,10.42,6.83,6.83,0,0,0-.58,1.53c-.86,1.52-1.7,3.06-2.46,4.61-3.1,6.27-5,12.67-6.94,18.95q-7.45,24.72-14.9,49.43c-1,3.27-1.88,7.21-.18,8,.81.4,2-.1,2.91.22,1.64.61,1.33,4,.22,7s-2.83,6.08-3.9,9.13-1.29,6.39.43,6.84c2.47.66,6.44-4.72,9.47-5.57,2.28-.63,3.65,1.42,6,.27S139,279.31,140,276s1-6.39,1.78-9.71a34.07,34.07,0,0,1,6.95-13.34c3.37-3.94,7.14-6.36,10.73-9.54a67.74,67.74,0,0,0,15.08-20.28,3.68,3.68,0,0,0,1.93-1.61,30.15,30.15,0,0,0,5.6-16.95c.06-3.26-.38-6.49.24-10.12l.32-.66a55.41,55.41,0,0,0,4.84,7.61c.76,1,1.66,2,3.12,1.53,2.37-.74,4.74-4.65,7.18-7,3.83-3.73,7.67-3.47,11.59-6.58,3.58-2.84,6.5-7.88,9.77-11.93,5.22-6.49,11.29-10.39,17-13.42a28.19,28.19,0,0,0,5.51-3.47,16.17,16.17,0,0,0,4.57-6.4c.48-1.36.64-2.66,1.14-4,1.33-3.65,4.53-6.49,7.25-8.22s5.6-3.15,8-6.29C266.09,131,266.94,124.7,265.33,121.74ZM205.58,65.26a18.89,18.89,0,0,1-.18,9.3,51,51,0,0,0-.2-5.25C205.12,68.29,204.67,66.11,205.58,65.26Zm-73.83,11a18.8,18.8,0,0,1,1.62-9.16c.73,1-.13,3.06-.41,4C132.49,72.87,132.05,74.57,131.75,76.3Z"/></g></g></g></svg>