<svg xmlns="http://www.w3.org/2000/svg" xmlns:xlink="http://www.w3.org/1999/xlink" viewBox="0 0 432.44 257.01"><defs><style>.cls-1{isolation:isolate;}.cls-2{mix-blend-mode:multiply;fill:url(#linear-gradient);}</style><linearGradient id="linear-gradient" x1="216.12" y1="-5.45" x2="217.67" y2="272.22" gradientUnits="userSpaceOnUse"><stop offset="0" stop-color="#efa4be"/><stop offset="1" stop-color="#c1a9c8"/></linearGradient></defs><g class="cls-1"><g id="Layer_2" data-name="Layer 2"><g id="Graphic_Elements" data-name="Graphic Elements"><path class="cls-2" d="M428.12,3.79c-4-3-9.34-3.39-14.34-3.58A303.63,303.63,0,0,0,272.9,29.27a48.9,48.9,0,0,0-14-2.94,48,48,0,0,0-28.19,7.32,49.24,49.24,0,0,0-8.38,6.64,8.78,8.78,0,0,0-5.09-1.17,10.38,10.38,0,0,0-5,1.92,29.13,29.13,0,0,0-10.93-8.26A53.93,53.93,0,0,0,187.49,29a78.66,78.66,0,0,0-27.23.61A303.64,303.64,0,0,0,18.66.21C13.66.4,8.36.82,4.31,3.79A10.08,10.08,0,0,0,.05,12.85c.77,7.38,10.09,6.3,12.29,11.65,1.77,4.32-2.71,9-1.82,13.61.75,3.92,5.11,6,9.07,6.56s8.12.06,11.84,1.53C36,48,39.06,52.47,41,57s3,9.46,5.35,13.83C51,79.64,59.78,85.29,68.21,90.54c5.51,3.43,11.46,7,18,6.72,7.87-.33,14.26-6.12,20.38-11.07a132.43,132.43,0,0,1,16-11.12,83.92,83.92,0,0,1,34-9.9,1.53,1.53,0,0,1,.62,3,151.4,151.4,0,0,0-49.7,27.68c-5.43,4.57-11,10.72-9.93,17.74a3.89,3.89,0,0,0,4.13,5.21c1.2-.1,2.35-.71,3.55-.58,3.13.32,3.89,5,3,7.72a8.59,8.59,0,0,0-.53,2.5c-.18,7.63,6,6.64,10.5,7.91a15.32,15.32,0,0,1,8.26,6.51,36.69,36.69,0,0,1,3.59,7.37,23.42,23.42,0,0,0,11.33,11.58l15,6.17c4.28,1.76,8.7,3.62,11.81,7,4.64,5.1,5.4,12.52,5.93,19.39.61,7.94,1.23,15.92.81,23.88a87.77,87.77,0,0,1-4.76,24.37,13.16,13.16,0,0,0-.16,8.52c3,8.91,13.5,5.88,16.83-.41,2.71-5.12,2.09-11.28,1.4-17q-1.33-11.05-2.66-22.09c-1.23-10.29-5.87-20.08-1.22-29.34,3.89-7.74,10.89-13.26,15.44-20.54a27.45,27.45,0,0,0,4.16-13.31c.28-5.36-1-10.69-.64-16,.61-8.1,2.4-30.18,6.31-41.94-.13,3.94-.52,7.88-.92,11.79-1,10-1.19,14.53-2.2,24.56l-.27,4.26c-.14,5.62.76,6.3,1,12.62s3.36,13.69,8.68,13.74c3.06,0,5.8-2.57,7.27-5.77s1.88-6.92,2.13-10.55a149.43,149.43,0,0,0-3.61-44.48c-.87-3.66-1.86-7.48-2.52-11.3,5.87,7.35,9.92,29.61,9.92,45.89,0,2.18-.1,4.46-.25,6.63-.18,2.67-.39,5.34-.4,8a28.93,28.93,0,0,0,3.19,14.1,59.28,59.28,0,0,0,7.63,10.26c3.24,3.76,6.59,7.55,8.84,12,4.65,9.26,0,19-1.22,29.34q-1.34,11-2.66,22.09c-.85,7.11-1.6,14.86,3.93,20.48,3.19,3.24,8.36,3.84,11.81.87,4.51-3.9,2.62-11,1-16.67a88.14,88.14,0,0,1-3.4-20.13,183.16,183.16,0,0,1,.81-23.88c.53-6.87,1.29-14.29,5.92-19.39,3.11-3.43,7.54-5.29,11.82-7l15-6.17a23.5,23.5,0,0,0,11.33-11.58,36.69,36.69,0,0,1,3.59-7.37c2.46-3.69,6.2-6.74,10.83-6.91a11.44,11.44,0,0,0,3.87-.81c5.4-2.25,3.79-6.59,3.27-10.38-.38-2.7.55-6.26,3.27-6.54,1.2-.13,2.35.48,3.55.58a3.89,3.89,0,0,0,4.13-5.21c1.05-7-4.5-13.17-9.93-17.74a151.46,151.46,0,0,0-47.8-27,1.65,1.65,0,0,1,.68-3.21,63.35,63.35,0,0,1,18.22,3.92c9.21,3.48,17.66,8.7,26,13.82.09,0,.18.08.26.13q1.78,1.34,3.53,2.75c6.12,5,12.51,10.74,20.38,11.07,6.48.27,12.44-3.29,18-6.72,8.43-5.25,17.23-10.9,21.87-19.68,2.31-4.37,3.43-9.27,5.35-13.83s5-9,9.56-10.83c3.72-1.47,7.88-1,11.84-1.53s8.31-2.64,9.07-6.56c.89-4.58-3.59-9.29-1.82-13.61,2.2-5.35,11.52-4.27,12.29-11.65A10.07,10.07,0,0,0,428.12,3.79Zm-223,50.14c0,.26,0,.53-.07.8-4.93-3.24-10.53-6-16-9.38Q177,37.84,164.16,31.51a77.53,77.53,0,0,1,20.36-.39c8.6,1,18,3.28,24.23,9.69a21.4,21.4,0,0,1,1.59,1.84A19.54,19.54,0,0,0,205.1,53.93Zm62.45-22.07q-4.08,2-8.1,4.19-2,1.08-4,2.19l-7,3.29c-2.16.86-4.29,1.8-6.37,2.84a82.17,82.17,0,0,0-11.91,7.26l-1.61,1.22a12.58,12.58,0,0,0-4.17-11.07,46.44,46.44,0,0,1,18.47-11,45.54,45.54,0,0,1,26.81,0Z"/></g></g></g></svg>