<svg xmlns="http://www.w3.org/2000/svg" viewBox="0 0 469.98 474.5"><defs><style>.cls-1{fill:#fff;}</style></defs><g id="Layer_2" data-name="Layer 2"><g id="Layer_1-2" data-name="Layer 1"><path class="cls-1" d="M330.09,254S323.68,54.78,217.69,0c0,0,5,98.17-125.92,86.79,0,0,86.79,48.49,22,154.43,0,0,32-14.17,47.67,0s41.26,53.3,28.45,99.54c0,0-19.92-3.56-51.22,14.22s-61.89,37-91.06,42.69c0,0-28.45-15.65-47.66,0,0,0,17.78,11.38,51.93,7.82s63.32-18.49,79.68-24.9,48.37-14.22,73.27-4.26l-3.56,13.51s-7.11-6-21.34-1.06c0,0-5.69,0-8.89-3.92,0,0-13.87,8.9-24.19,9.61s-6,12.4,0,11.71,15.3-10.29,25.61-8.51,28.46,8.89,38.42,6.4,31.3-13.52,31.3-13.52-11,5.34,1.42,4.63c0,0-.35,2.84-4.62,2.84,0,0,12.09,8.54,17.78-2.49,0,0,5.69,6.76,5.34,13.16l-5,13.88s-9.07-3.56-14.41-2c0,0-3.47,10.67,2.4,11.47s17.61-3.2,21.35-9.34c0,0-14.94,20.55-20.28,22.68,0,0,83.5-28.54,110.71,29.08,0,0,47.49-49.09,104.58-3.2,0,0,10.41-17.61,8.14-21.88s-10.28-17.07-12.41-28.28c0,0-43.22-38.94-79.5-57.09,0,0-25.08,2.14-37.35-2.66,0,0,29.52-18.14,45.53-15.3,0,0,0,4.27,8.18.71s17.07-7.11,23.12-6.75c0,0,8.89-5.34.36-10.32s-11.74-3.56-11.74-3.56-1.78-3.55-5-4.62a24.84,24.84,0,0,1-5.34-2.49s-18.14-2.49-24.89-.36c0,0,6.4,3.2,10.67,3.2,0,0-22.77,2.85-31.31,6.05s-25.61,18.85-44.81,6.4C305.19,334.35,293.45,281,330.09,254Z"/></g></g></svg>