<svg xmlns="http://www.w3.org/2000/svg" viewBox="0 0 302.42 329.79"><defs><style>.cls-1{fill:#e7ccec;fill-rule:evenodd;}</style></defs><g id="Layer_2" data-name="Layer 2"><g id="OBJECTS"><path class="cls-1" d="M302.1,138.71c-.84-.45-1.63-1-2.49-1.39a15.21,15.21,0,0,0-2.6-1,11.09,11.09,0,0,0-4.25-.43,1.85,1.85,0,0,1-.62,0,3.18,3.18,0,0,1-.64-.26,10.75,10.75,0,0,0-2.54-.75.27.27,0,0,0-.25-.16,1.62,1.62,0,0,0-.58,0,.39.39,0,0,0-.16.07h-.17a7.53,7.53,0,0,1-.83-.07,10.06,10.06,0,0,1-1.22-.22l.17-.14a.28.28,0,0,0,0-.44,2.93,2.93,0,0,0-1.88-.53c-1.73-.18-3.48-.25-5.21-.4-.91-.09-1.82-.18-2.72-.29l-.49-.05.6-.11a.33.33,0,0,0,.26-.45.76.76,0,0,0-.28-.31,1,1,0,0,0-.49-.15l.15-.12a5.87,5.87,0,0,1,.59-.37,14.91,14.91,0,0,1,2.42-1l.16,0a.34.34,0,0,0-.08-.65h-.18l-2.86-.17a3.43,3.43,0,0,0,.14-1.24.3.3,0,0,0-.25-.25c-.76,0-1.51.1-2.26.17l-1.31.1a.2.2,0,0,0-.16-.05,3.39,3.39,0,0,1-1.27-.06,2.87,2.87,0,0,1-.57-.24l-.25-.18-.06-.06.3-.19a1.87,1.87,0,0,0,.5-.47c.19-.29.33-.85,0-1.14a2.72,2.72,0,0,0,.37-.13.83.83,0,0,0,.5-.88c-.15-.92-1.26-.88-1.94-1.15a3.78,3.78,0,0,1-1.12-.68c-.11-.09-.27-.22-.29-.37a.82.82,0,0,1,.26-.49c.73-.85,1.55-1.64,2.33-2.45a.4.4,0,0,0-.26-.64l-.58,0a14.16,14.16,0,0,1,2-1.67,15,15,0,0,1,1.44-.89,17.18,17.18,0,0,0,1.51-.85.26.26,0,0,0,0-.4.19.19,0,0,0-.13-.3,2.1,2.1,0,0,0-.36,0,1.07,1.07,0,0,0-.35-.14c-.4-.1-.8-.18-1.21-.26a5.19,5.19,0,0,1,.87-.53l1.62-.84,1.59-.84c.26-.13.5-.27.77-.39s.52-.12.66-.31a.16.16,0,0,0,0-.23.66.66,0,0,0-.6,0h-.65a4.26,4.26,0,0,1-1.07-.08,3.34,3.34,0,0,0-1-.12,2.84,2.84,0,0,0-.86.25c-.6.28-1.2.59-1.77.92l-.84.49h0a12.43,12.43,0,0,0-1.49.68c-.46.26-.93.51-1.41.76l-2.9,1.46c-2,1-4,1.86-5.94,2.72-4.1,1.79-8.26,3.44-12.37,5.21-1.17.5-2.33,1-3.49,1.55s-2.27,1-3.34,1.61l-.09.07-.16,0a2.26,2.26,0,0,0-1.05.43c-.32.25-.62.55-.92.83-1.31,1.23-2.57,2.5-3.86,3.75s-2.39,2.34-3.67,3.41-2.51,2-3.82,3c-.95.7-1.95,1.34-3,2h0l-.83.49a4.83,4.83,0,0,1-.83.3c-.64.15-1.32.08-2,.2a18.35,18.35,0,0,0-2.06.54l-2.1.62c-.39.12-1.46.38-1.39,1a1,1,0,0,0-.13.28.41.41,0,0,0,.12.48,3.76,3.76,0,0,0,.93.37,5,5,0,0,1,.84.4,2,2,0,0,1,.3.21l-.45.32-.85.56c-.58.36-1.16.73-1.75,1.08-1.17.71-2.36,1.39-3.56,2.05s-2.41,1.29-3.62,1.93-2.52,1.39-3.79,2.07l-2.17,1.13-1.09.56a5.78,5.78,0,0,0-.73.42,1,1,0,0,1-.35-.19,3.83,3.83,0,0,1-.52-.68c-.38-.51-.73-1-1.08-1.57a6.06,6.06,0,0,0-1-1.37,1.56,1.56,0,0,0-.82-.36,2.26,2.26,0,0,0-.45,0h-.08a6.57,6.57,0,0,0-.45-1.36c-.21-.53-.43-1.07-.65-1.6a32.47,32.47,0,0,0-1.64-3.22,18.73,18.73,0,0,0-4.52-5.27,15.08,15.08,0,0,0-1.54-1.07,5.2,5.2,0,0,0-1.8-.8.25.25,0,0,0-.24.09,1,1,0,0,0-.45.31,1.47,1.47,0,0,0,0,1.55c.51,1.09,1.09,2.16,1.64,3.24s1.07,2,1.5,3.12a12.39,12.39,0,0,1,.77,3.19c0,.4.08.8.11,1.21l-.28-.14-.46-.22a5.91,5.91,0,0,0-.06-1.39.29.29,0,0,0-.58.08,6.63,6.63,0,0,1-.06,1l-.15-.06c-.46-.19-.92-.39-1.38-.57l-.38-.16-.92-1a3.73,3.73,0,0,0,0-1.63c-.07-.3-.53-.35-.57,0s-.07.61-.12.92a8.71,8.71,0,0,0-2-1.39,7.28,7.28,0,0,0-2.65-.84,1,1,0,0,0-1.1.61,1.16,1.16,0,0,0-.06.49l-.43-.22c-.4-.19-.8-.38-1.21-.55A4.43,4.43,0,0,0,175,143a.22.22,0,0,0-.42.06c-.1.6-.14,1.21-.25,1.8a37.55,37.55,0,0,0-4-1.31l-.54-.14a2.46,2.46,0,0,1,0-.26,4.54,4.54,0,0,0-.25-1.09,7.72,7.72,0,0,0-.51-1,.16.16,0,0,0-.29.13,3.72,3.72,0,0,1,.15,1,7.53,7.53,0,0,1,0,1v0A9.64,9.64,0,0,0,166,143c-.53,0-1.05.14-1.56.24-.09-.32-.2-.63-.32-.94a2.88,2.88,0,0,0-.61-1.06c-.1-.1-.33-.09-.34.09a11.86,11.86,0,0,0,.43,2.1l-1.72.43-3.29.83v0a6.53,6.53,0,0,0-.73-2,.28.28,0,0,0-.52.22,7.19,7.19,0,0,1,.39,1.95s0,.08,0,.11l-.17.05c-1.33.34-2.66.68-3.95,1.13l-.72-1.6a.33.33,0,0,0-.61.26c.18.54.35,1.09.53,1.64a20.81,20.81,0,0,0-3.69,1.91,7.2,7.2,0,0,0-.83-1.39.31.31,0,0,0-.53.31c.16.44.4.83.6,1.25l.12.27c-.46.33-.91.67-1.34,1s-1,.89-1.5,1.37a5.07,5.07,0,0,0-1.06-1.21c-.13-.11-.33.09-.21.22a4.61,4.61,0,0,1,.88,1.39c-.33.35-.66.72-1,1.09s-.65.8-.95,1.22l-.09-.23a6.06,6.06,0,0,0-.94-1.59c-.22-.29-.63,0-.44.34a5.72,5.72,0,0,1,.71,1.69s0,.08,0,.13a26.67,26.67,0,0,0-2.86-2.11c-.72-.47-1.45-.92-2.2-1.34a5.4,5.4,0,0,1-1.8-1.41c-.46-.61-.8-1.29-1.22-1.93a20.22,20.22,0,0,0-1.29-1.75,27.33,27.33,0,0,0-3.06-3.12,77.42,77.42,0,0,0-7-5.2c-1.21-.84-2.42-1.68-3.59-2.57-.34-.25-.67-.51-1-.78l0-.05c-.26-.37-.58-.72-.85-1.09a11.65,11.65,0,0,1-.8-1.18c-.26-.44-.46-.89-.75-1.31l0,0a17.24,17.24,0,0,1-1.6-3.78,29,29,0,0,1-.9-4.71,77.34,77.34,0,0,1-.27-8.88c.09-1.43.16-2.85.23-4.28.15-2.66.31-5.32.71-8a49.72,49.72,0,0,1,2-7.89l1.42-4.48c.44-1.4.89-2.79,1.24-4.21l.23,0a7.27,7.27,0,0,0,1.09-.35,3.69,3.69,0,0,1,1.08-.3,1.85,1.85,0,0,1,1.05.29,7.1,7.1,0,0,1,1,.8c.38.34.76.69,1.16,1a1.81,1.81,0,0,0,1.23.6c.38,0,.84-.33.73-.76v0a3,3,0,0,0,.14-1.1,7.9,7.9,0,0,0-.13-1.45,11.89,11.89,0,0,0-.9-2.78,34,34,0,0,1-2.22-5.25c-.12-.49-.22-1-.33-1.46a73.58,73.58,0,0,1-.85-10.27A108.85,108.85,0,0,1,123.24,52a23.48,23.48,0,0,0,.25-2.9,8.05,8.05,0,0,0-.09-1.39q-.06-.3-.15-.6c0-.24-.1-.49-.15-.72-.11-.56-.21-1.11-.32-1.66l-.66-3.32c-.43-2.2-.86-4.39-1.3-6.59-.86-4.36-1.69-8.73-2.55-13.09-.25-1.23-.48-2.45-.72-3.68-.1-.51-.2-1-.31-1.54,0-.21,0-.43,0-.64,0-.42-.07-.85-.12-1.28a24.38,24.38,0,0,0-.45-2.53,13.79,13.79,0,0,0-1.78-4.31,10,10,0,0,0-1.55-1.83l-.13-.12c-.32-.29-.69.18-.5.5a.25.25,0,0,1,0,.07,10.4,10.4,0,0,1,1.3,4.38v0c-.72.54-1.33,1.67-.59,2.43.31.33.74.44.76.94a2.22,2.22,0,0,1-.21.94.87.87,0,0,0-.22,0c-.26.08-.34.25-.41.5l-.12.52a1.74,1.74,0,0,0-1.48-.06,1.41,1.41,0,0,0-.61.62,2.52,2.52,0,0,0-.73-.1c-.62,0-1.24,0-1.87,0a1.45,1.45,0,0,0-.89.2.83.83,0,0,0-.18.87c.1.46.21.93.32,1.39a2.12,2.12,0,0,0-1.36.47,1.34,1.34,0,0,0-1.33.08c-.31-.37-.63-.73-1-1.07s-.89-1-1.58-.95a2.16,2.16,0,0,1-.71.08,2.21,2.21,0,0,1-.53-.27,1.68,1.68,0,0,0-1.48-.3.48.48,0,0,0-.22.68s0,0,0,.05-.29,0-.43-.07a2.94,2.94,0,0,0-1.39-.51,1.2,1.2,0,0,0-1.08.69,1.21,1.21,0,0,0,0,.18,21.4,21.4,0,0,0-2.5-.54c-.58-.09-1.16-.15-1.73-.2s-1.12,0-1.68-.07a10.15,10.15,0,0,1-1.55-.22,8.54,8.54,0,0,0-1.4-.24,2.23,2.23,0,0,0-1.37.4c-.13.08-.23.18-.39.13a4.85,4.85,0,0,1-.57-.35A1.74,1.74,0,0,0,84.14,17L83.9,17a.34.34,0,0,0-.42-.13c-.24.1-.54,0-.79.05a.75.75,0,0,0-.57.89,9.88,9.88,0,0,0,.44,1.4c.11.33.21.65.32,1a1.26,1.26,0,0,0-.44.84,1.91,1.91,0,0,0,.09.82,24.55,24.55,0,0,1-3-3.19,23.47,23.47,0,0,0-1.81-2.05,3.5,3.5,0,0,0-2.36-1.09A1.85,1.85,0,0,0,74,16a.76.76,0,0,0-.12.41c-1.08-.47-2.16-.93-3.25-1.36-.69-.27-1.37-.54-2.06-.79a17.07,17.07,0,0,0-1.83-.61c-.06-.39-.68-.35-.74,0,0,.11,0,.21,0,.32a2.49,2.49,0,0,1-.83-.37l-.21-.15a.38.38,0,0,0-.6.34l.06.26c.17.71.35,1.42.49,2.14s.32,1.6.49,2.4c.08.4.17.8.26,1.2,0,.2.08.4.13.6l.06.3a2.74,2.74,0,0,0,0,.28,1,1,0,0,1-.22-.14,1.11,1.11,0,0,0-1-.19.38.38,0,0,0-.25.33s0,0,0,.08a50.29,50.29,0,0,1-5.28-3.38c-.45-.33-.91-.65-1.34-1a6.26,6.26,0,0,0-.6-.45,4,4,0,0,0-.75-.3c-.37-.13-.41-.44-.43-.8A2.76,2.76,0,0,0,55.72,14a1.81,1.81,0,0,0-2.11-.83A16.82,16.82,0,0,0,52,11.16a14.15,14.15,0,0,0-1-1,6.32,6.32,0,0,0-1.2-.93,1.55,1.55,0,0,0-1.31-.13,1.15,1.15,0,0,0-.49.38,1.91,1.91,0,0,0-.23.6c0,.15,0,.12-.18,0A3.37,3.37,0,0,0,47,9.74a2.36,2.36,0,0,0-1.29,0,1.93,1.93,0,0,1-1.34,0,1.84,1.84,0,0,0-1.1-.32,19,19,0,0,1-1.81-1.4,12,12,0,0,0-4.13-2.51,16.54,16.54,0,0,1-2.74-.89,27.67,27.67,0,0,1-2.38-1.55A19.54,19.54,0,0,0,27.12.82a22.5,22.5,0,0,0-3-.64A9.74,9.74,0,0,0,20.94.1a.14.14,0,0,0,0,.28l.18,0a.14.14,0,0,0,.08.09c.34.16.7.25,1,.4a6.18,6.18,0,0,1,1,.51A9.61,9.61,0,0,1,25,2.81,14,14,0,0,1,26.4,4.53c.45.63.84,1.31,1.27,2a5.19,5.19,0,0,0,1.69,1.64A9.73,9.73,0,0,0,31.58,9a9.5,9.5,0,0,1,4,2.21,24.63,24.63,0,0,1,2.34,2.45l-.19.09a3.08,3.08,0,0,0-.86.5,1.06,1.06,0,0,0-.38.87,1.27,1.27,0,0,0,.48.76c.43.45-.16,1-.33,1.42s.1,1,.38,1.52c.11.19.2.35,0,.53a4.44,4.44,0,0,1-.38.27,1.51,1.51,0,0,0-.4.48.44.44,0,0,0,.23.59,5.52,5.52,0,0,1,1.23.7,4.57,4.57,0,0,1,1,1,4.93,4.93,0,0,1,.61,1.34c.08.28.29.31.54.4a2.91,2.91,0,0,1,.71.34.91.91,0,0,1,.48,1,.5.5,0,0,1-.2.34c-.16.1-.38.06-.56.14a1,1,0,0,0-.35,1.31,3.92,3.92,0,0,0,.39.58c.14.21.1.27,0,.45a1.71,1.71,0,0,0-.44,1.18,2.76,2.76,0,0,0,.3,1c.16.33.35.65.49,1a1.55,1.55,0,0,1,.14.39,1.81,1.81,0,0,1,0,.23h0v0a.59.59,0,0,1,0,.14.86.86,0,0,1-.07.14,2.35,2.35,0,0,1-.19.25,1.64,1.64,0,0,0-.38.77,1.45,1.45,0,0,0,.59,1.24,3.08,3.08,0,0,1,.83.82,2.68,2.68,0,0,1,.26,1.22,8.72,8.72,0,0,1-.15,1.53c-.1.67-.2,1.34-.35,2a10.56,10.56,0,0,1-.59,1.83c-.13.31-.42,1.08-.87,1s-.52.3-.44.58.11.54.16.82a.38.38,0,0,0-.13.21c-.07.31-.52.48-.76.62a1.66,1.66,0,0,0-.79.9,1.4,1.4,0,0,0,.24,1.2,1.12,1.12,0,0,0,.51.4l-.08,0h0a.87.87,0,0,1-.23,0c-.37,0-.65.48-.3.72l.17.11h0l.71.48a1.47,1.47,0,0,0-.47.27c-.09.08-.17.19-.27.21a1.36,1.36,0,0,1-.45,0l-1.07-.05-1.08,0a1.41,1.41,0,0,0-.81.14.82.82,0,0,0-.37.64,11.64,11.64,0,0,1-1.56.31.41.41,0,0,0-.19.73s0,.1,0,.15a.51.51,0,0,1-.23.23c-.21.11-.47.09-.69.2a.52.52,0,0,0-.32.54,1,1,0,0,0,.3.48c.16.17.3.37,0,.45s-.65.06-1,.1c-.65.07-1.29.15-1.93.26l-.21,0a.43.43,0,0,0-.11.81l.19.1c.79.39,1.58.78,2.39,1.14.42.18.84.36,1.25.56a2.3,2.3,0,0,1,.58.35c-1,0-2,0-3-.13s-2.24-.35-3.37-.47h-.08a5.07,5.07,0,0,0-.87,0,10.61,10.61,0,0,0-1.13.17,21.7,21.7,0,0,0-2.25.55.49.49,0,0,0-.21.75.33.33,0,0,1,0,.46,1.74,1.74,0,0,1-1,.36.5.5,0,0,0-.27.85h0v0a.49.49,0,0,1-.11.18,1.55,1.55,0,0,1-.73.28,3.68,3.68,0,0,0-1.42.79,2.64,2.64,0,0,1-.58.41,1.93,1.93,0,0,1-.76,0,1.13,1.13,0,0,0-.73.34,3,3,0,0,1-.36.36L13.08,61l-1.48-.35a8,8,0,0,0-1.43-.27,1,1,0,0,0-.95.62,3.62,3.62,0,0,0-.13.35l-.74,0c-1,.06-2,.1-3,.15a13.55,13.55,0,0,0-4.82.79l-.25.12a.54.54,0,0,0,.14,1l.28,0c2,.19,4,.35,6.06.56a4.69,4.69,0,0,1,1.29.26,4.31,4.31,0,0,1,1,.71,1.71,1.71,0,0,0,1.33.42,5.91,5.91,0,0,0,1.26-.5,3.45,3.45,0,0,1,2.73.31.22.22,0,0,0,.28-.1l.36.26a3.74,3.74,0,0,0,.89.51c.34.13.72.14,1.06.26s.41.49.56.77a1.32,1.32,0,0,0,.79.69,6.35,6.35,0,0,1,1.07.22,1.25,1.25,0,0,1,.4.63,2.63,2.63,0,0,0,.52.88,1.85,1.85,0,0,0,.86.46c.57.16,1.22.07,1.77.23a.6.6,0,0,1,.45.38,1.42,1.42,0,0,0,.69.81,2.48,2.48,0,0,0,.89.22,1.91,1.91,0,0,1,.85.21c.13.09.13.2.17.34a4.61,4.61,0,0,0,.15.53,1.51,1.51,0,0,0,.55.82,1.29,1.29,0,0,0,.63.19c.11,0,.28,0,.35.07s-.06.65-.13.84a.34.34,0,0,0,.27.47l.3,0,.89.07a.48.48,0,0,0,.19.09h0a2.13,2.13,0,0,0,.44,0,6.45,6.45,0,0,1,.95.28,1.05,1.05,0,0,0,1-.12.2.2,0,0,0,.09-.12h0a.08.08,0,0,0,.08-.07v0L32,75a.15.15,0,0,1,.08.16.51.51,0,0,1-.19.32,1.11,1.11,0,0,1-.24.16.43.43,0,0,0,.11.81c.22,0,.43.17.65.19a.28.28,0,0,0,.35.08l.14,0a1.52,1.52,0,0,0,.62.91c.15.1.45.17.53.33s0,.45-.06.61a2.28,2.28,0,0,0,1.62,2.58c.85.36,2.29.53,2.55,1.6a1.76,1.76,0,0,0,.29.77,1.34,1.34,0,0,0,.64.4,2.12,2.12,0,0,1,.57.19c.14.11.1.43.15.59.15.55.7.72,1.2.78a1.86,1.86,0,0,1,.81.2c.17.11.28.44,0,.53a.23.23,0,0,0-.1.35.21.21,0,0,0,.13.2c.51.24.73.88.94,1.36a3.47,3.47,0,0,0,.71,1.15,1.76,1.76,0,0,0-.22,1.8,1.14,1.14,0,0,0,.85.64l.15,0v0c0,.22,0,.45.08.68.1.88.2,1.77.33,2.65a10.23,10.23,0,0,0,.26,1.34A1.91,1.91,0,0,1,45,97a4.48,4.48,0,0,1-.11.62c-.09.76.64,1.05,1.27,1.13a.58.58,0,0,1,0,.32,1.15,1.15,0,0,0-.39,1.07,1.1,1.1,0,0,0,.06.26,1.3,1.3,0,0,1,.1.15s0,0,0,0a1.37,1.37,0,0,1-.2.29L45,102a.48.48,0,0,0,.43.76,2.17,2.17,0,0,0,.35-.07,1.07,1.07,0,0,1,.47-.05c.18,0,.41.14.45.34s-.51.62-.71.81a1.22,1.22,0,0,0-.28,1.36c-.37.31-.79.57-1.15.89a2.67,2.67,0,0,0-.89,1.43,1.52,1.52,0,0,0,.37,1.43c.1.11.2.15.12.29a3.61,3.61,0,0,1-.33.44l-.69.94a.32.32,0,0,0,.13.5l.34.14-1,.72A12.52,12.52,0,0,0,41.33,113a.18.18,0,0,0,0,.27.46.46,0,0,0-.31.35,2.2,2.2,0,0,1-.48.78,1.93,1.93,0,0,0-.43.9,1.32,1.32,0,0,0,0,.56c.06.19.08.25-.06.41a9.49,9.49,0,0,1-1.06.94.39.39,0,0,0,.28.69l.19,0a5.92,5.92,0,0,1,.62-.06h.22a.17.17,0,0,0,0,.07c0,.13.19.21.23.07a.18.18,0,0,1,.32,0,.39.39,0,0,1,0,.36c-.17.27-.59.41-.85.57s-.62.35-.92.54a5.63,5.63,0,0,0-.49.29.94.94,0,0,0-.32.23c-.38.43,0,.87.37,1.18a5.26,5.26,0,0,0-1.16,1.1,1.59,1.59,0,0,0-.25.62,1.12,1.12,0,0,1-.16.43,4.72,4.72,0,0,1-.57.7c-.45.45-1,.83-1.43,1.27a3.76,3.76,0,0,0-1,1.51,9.69,9.69,0,0,1-1.18.2,4.48,4.48,0,0,0-1.26.25,3.73,3.73,0,0,0-1,.67c-.33.28-.65.57-1,.86-.62.58-1.21,1.19-1.78,1.83a18.65,18.65,0,0,0-1.67,2.09l-.12.18a.5.5,0,0,0,0,.56.45.45,0,0,0,.54.14l.2-.11c1.45-.79,3-1.45,4.49-2.12l1.16-.52.61-.28c.2-.09.41-.14.63-.22.4-.15.8-.36,1.2-.55l1.11-.5,1.84-.8v0a.41.41,0,0,0,.56.42A17.3,17.3,0,0,1,41,127.74l-.12.11a.41.41,0,0,0,.09.69,4.29,4.29,0,0,0,.94.22l.49.1c0,.09,0,.18,0,.27a.4.4,0,0,0,.44.44c.43-.06.87-.07,1.31-.1l.81-.06a.38.38,0,0,0,.15,0,4.14,4.14,0,0,0,.86-.12l.84-.22,1.69-.47,2.59-.74c-.07.17-.14.34-.2.51l-.09.21c-.1.26.17.58.44.45l.19-.08a1.8,1.8,0,0,1,.5-.11,1,1,0,0,0,.49,1.05l-.26.3a5.88,5.88,0,0,0-.36.51,5.48,5.48,0,0,1-.31.52c-.08.11-.17.2-.25.3a1.07,1.07,0,0,0-.16.25.34.34,0,0,0,.36.47c1.53-.16,3.06-.34,4.6-.46,1.35-.11,2.73-.22,4.1-.2-.06.22-.12.43-.17.65s.35.63.66.5a1.81,1.81,0,0,1,1.39.16,13,13,0,0,0,1.64.7,2.68,2.68,0,0,0,.93.12,3,3,0,0,0,1-.29c.13-.05.23-.08.33,0a3.17,3.17,0,0,0,.29.35.82.82,0,0,0,.94.11,10,10,0,0,0,1.23-.81l.62-.41.17-.12c0,.28.3.58.61.42l.1-.05a10.46,10.46,0,0,1,2-.73c-.16,1-.33,1.95-.43,2.93a.46.46,0,0,0,.73.42,2.75,2.75,0,0,1,1.64-.63c.46,0,1,.54.74,1a.27.27,0,0,0,.28.37l.23,0,.63-.07c0,.24,0,.48,0,.72v.19a.27.27,0,0,0,.47.13l.1-.17a2.9,2.9,0,0,1,1.19-1.26.84.84,0,0,1,1.16.48.43.43,0,0,0,.55.23c.17-.07.34.15.4.29a1.72,1.72,0,0,1-.09,1,.43.43,0,0,0,.56.56.85.85,0,0,1,.83.11,1,1,0,0,1,.44.8.39.39,0,0,0,.61.26,1.4,1.4,0,0,1,.51-.25l.46.92a.27.27,0,0,0,.27.16,2.07,2.07,0,0,0,.74.6,1.86,1.86,0,0,0,1.19,0c.13,0,.25-.07.32,0a1,1,0,0,1,.07.36.9.9,0,0,0,.55.78,1.26,1.26,0,0,0,.33.05l.1,0v0a.28.28,0,0,1,0,.13c0,.54-.28,1.23.35,1.53a.37.37,0,0,0,.35-.05c1.19-1,2.38-2.06,3.48-3.21.54-.57,1.06-1.17,1.56-1.78a16.21,16.21,0,0,0,1.13-1.49,3.79,3.79,0,0,1-.59,1.6c-.35.71-.71,1.42-1.07,2.13-.18.36-.37.71-.56,1.06s-.4.66-.55,1a.75.75,0,0,0,0,.51c-.5.78-1.17,1.56-.91,2.55a1.5,1.5,0,0,0,1.29,1.07,1.6,1.6,0,0,0,.31,1.06,1.19,1.19,0,0,0,1.23.38c.3.1.52.67.7,1.15,0,.64,0,1.27,0,1.91a.47.47,0,0,0,.52.39,1.92,1.92,0,0,1,.79,0c.2,0,.24.18.25.42,0,.39,0,.78,0,1.16a3.43,3.43,0,0,0,.1,1.2.48.48,0,0,0,.48.28c.81-.18.77,1.25.8,1.71a1.87,1.87,0,0,0,.27,1.09c.24.32.61.25.92.44s.48.9.5,1.34a10.33,10.33,0,0,0,.07,1.76,2,2,0,0,0,1,1.41,12.29,12.29,0,0,1,.16,1.81,8.21,8.21,0,0,1,0,1,4,4,0,0,0-.07,1c0,.23.32.44.54.31a.19.19,0,0,1,.14,0c.21,0,.27.44.26.61,0,.35-.15.68-.16,1a1.29,1.29,0,0,0,.39,1,1.1,1.1,0,0,1,.43.78,6.73,6.73,0,0,1-.07,1,6,6,0,0,0,0,1.27,10.77,10.77,0,0,0,.7,2.54c.14.38.27.84.68,1a.79.79,0,0,0,.64,0c.07.37.09.74.13,1.1l.06.52a.28.28,0,0,0-.16.24,10.7,10.7,0,0,0,.11,1.5,1.84,1.84,0,0,0,.4,1.14.81.81,0,0,0,1.1.07,2.77,2.77,0,0,0,.1.26.43.43,0,0,0,.78,0L105,181l1.41-2.82c.36-.73.75-1.47,1.11-2.21a8.44,8.44,0,0,1,0,1.88c-.07,1-.15,2.09-.22,3.14-.15,2.13-.26,4.27-.37,6.4a8.59,8.59,0,0,0-.06,1.34,1.47,1.47,0,0,0,.78,1,2,2,0,0,0,.59.17h0a.57.57,0,0,1,0,.14,2.91,2.91,0,0,0,.27,1c.37.64,1.1.74,1.73,1a1.31,1.31,0,0,1,.71.49,7.21,7.21,0,0,0,.52.94,2,2,0,0,0,1.21.53c.12,0,.27,0,.33.15a2.77,2.77,0,0,1,.12.65.9.9,0,0,0,1.11.69,1.29,1.29,0,0,0,.42-.28,8.6,8.6,0,0,0,1.17,2.42.41.41,0,0,0,.7-.08,10.34,10.34,0,0,0,.56-1.43,11.4,11.4,0,0,0,.38-1.53,8.6,8.6,0,0,0,.08-2.32,17.85,17.85,0,0,1,1,4.09,9.23,9.23,0,0,0,.38,2.16,1.49,1.49,0,0,0,.69.79l.23.1-.61.84a4.21,4.21,0,0,0-1,2.33,6,6,0,0,0,.09,1.27l.12.61c0,.22.11.42.14.65a6.73,6.73,0,0,1-.56,2.64,10,10,0,0,0-.38,2.55,10.62,10.62,0,0,0,1.12,4.95,10.85,10.85,0,0,0,3.06,3.83,12.22,12.22,0,0,0-3.11,8.58,17.75,17.75,0,0,0,.68,5.12,8.81,8.81,0,0,1,.33,1.22,7.77,7.77,0,0,1,.1,1.27,3.21,3.21,0,0,1-.85,2.12c-.55.65-1.23,1.19-1.74,1.87a4,4,0,0,0-.62,1.17,2.45,2.45,0,0,0-.09.7c-.18.45-.32.92-.48,1.37-.25.74-.5,1.48-.74,2.22-.5,1.52-1,3.06-1.44,4.59s-.9,3-1.38,4.49c-.23.74-.49,1.47-.77,2.19a13,13,0,0,0-.65,2.18,20.49,20.49,0,0,1-.51,2.45,2.41,2.41,0,0,1-.4.76,2.08,2.08,0,0,1-.67.47.23.23,0,0,0-.09.33h-.08l0,0c-.45-.29-.19-.92-.18-1.4,0-.24-.31-.44-.48-.2a1.83,1.83,0,0,0,0,2.2,3.75,3.75,0,0,0-.34,1.14,4.29,4.29,0,0,0,.18,2.72,2.34,2.34,0,0,0,1,1.11,1.46,1.46,0,0,0,1.4-.13,7,7,0,0,0,1-.92,4.85,4.85,0,0,0,1-1.23c.25-.45.49-.9.71-1.36l0,.26a6.68,6.68,0,0,1-.43,2c-.28.61-1,.75-1.39,1.22a1.47,1.47,0,0,0-.28,1.46.9.9,0,0,1-.52-.18.28.28,0,0,0-.43,0c-.32.35.11.75.41.9a2.28,2.28,0,0,0,1,.26h.24a3.45,3.45,0,0,0,1.27.52,2,2,0,0,0,1.08,0,2.15,2.15,0,0,0,.9-.71,11,11,0,0,0,2.06-3.92,3.32,3.32,0,0,1,.39-1.08c.22-.3.39-.15.52.14a4.39,4.39,0,0,1,.29,1.24c0,.22,0,.45,0,.67a6.16,6.16,0,0,0-1.05,1.33c-.64,1.08-1.36,2.56-.63,3.76l.07.11a5,5,0,0,1-.43.35,6.53,6.53,0,0,1-1.21.61.21.21,0,0,0,.06.4,2.38,2.38,0,0,0,1.63-.26,3.56,3.56,0,0,0,.75-.51,2.29,2.29,0,0,0,.83.13,2.46,2.46,0,0,0,1-.18.94.94,0,0,0,.49-.84c0-.19,0-.4.14-.55a1.65,1.65,0,0,1,.6-.28,1.86,1.86,0,0,0,1.15-1.09c.12-.31.18-.64.29-.95A8.89,8.89,0,0,1,123,268a23,23,0,0,0,2,5.63c1,2.1,2.11,4.14,3,6.29a41.44,41.44,0,0,1,2.8,20.45,35.75,35.75,0,0,1-1.39,6.73,12.43,12.43,0,0,1-1.37,3,8.58,8.58,0,0,1-2.34,2.35,25.13,25.13,0,0,1-3,1.65c-1.07.53-2.14,1.05-3.25,1.5a15.56,15.56,0,0,1-3.36,1,13.16,13.16,0,0,1-3.76-.05c-1.25-.18-2.49-.42-3.72-.66a24.62,24.62,0,0,1-3.17-.83,31.8,31.8,0,0,1-2.46-2.05,21.33,21.33,0,0,1-4.31-5.15,10.46,10.46,0,0,1-.7-1.52,3.5,3.5,0,0,0,1.59-.78c.2-.19.11-.62-.23-.55-.52.12-1,.31-1.54.41l-.11,0c-.06-.21-.1-.41-.14-.62s-.07-.47-.09-.71c.46,0,.93,0,1.39-.06a16.58,16.58,0,0,0,2.88-.61c.27-.08.23-.52-.06-.45a12.08,12.08,0,0,1-2.82.24,13.36,13.36,0,0,1-1.41-.1h0c0-.52,0-1,.06-1.55,0-.18,0-.35,0-.52h.1a10.21,10.21,0,0,0,1.82-.41,6.26,6.26,0,0,0,1.43-.68,5.46,5.46,0,0,0,1.12-1.08c.15-.16-.1-.4-.27-.27a5.32,5.32,0,0,1-1.33.6,8.11,8.11,0,0,1-1.36.39c-.47.1-1,.17-1.43.23a11.44,11.44,0,0,0,0-1.55v-.06a3.74,3.74,0,0,0,.52-.28,2.7,2.7,0,0,0,.56-.45c.18-.18.3-.4.47-.59s-.14-.41-.31-.24a2.24,2.24,0,0,1-.57.35c-.19.1-.38.2-.57.28l-.22.09c0-.22-.09-.43-.15-.64a5.44,5.44,0,0,0-.26-.71,1.32,1.32,0,0,0-.49-.69c-.69-.38-1.15.48-1.43,1l-.36.64a5.84,5.84,0,0,1-1.52-1c-.16-.16-.44.11-.29.28a15.19,15.19,0,0,0,1.42,1.47l-.18.4c-.09.21-.17.41-.25.62l-.2,0a8.72,8.72,0,0,1-1.42-.46,8.94,8.94,0,0,1-1.34-.69c-.22-.13-.43-.28-.64-.43a4.45,4.45,0,0,1-.66-.48c-.1-.1-.28.07-.18.18s.32.43.51.63a5.9,5.9,0,0,0,.57.55A9.87,9.87,0,0,0,92,299a10.33,10.33,0,0,0,1.49.74l.18.07c0,.09-.05.18-.08.27a9,9,0,0,0-.26,1.62l-.18.71-.29-.06A11.71,11.71,0,0,1,89,300.8a.22.22,0,0,0-.27.35,11.57,11.57,0,0,0,3.83,2.32l.34.11c-.06.34-.1.69-.13,1s0,.41,0,.62a4.14,4.14,0,0,1-1.49-.53.25.25,0,0,0-.31.39,3.78,3.78,0,0,0,.84.65,4.4,4.4,0,0,0,.93.37,20.74,20.74,0,0,0,.1,2.09,21.26,21.26,0,0,0,1.95,6.85,24.18,24.18,0,0,0,9.94,10.62,33,33,0,0,0,15.51,4.09c5.47.14,11.13-.63,15.9-3.48a26.4,26.4,0,0,0,9.69-10.65,35.29,35.29,0,0,0,3.58-16.33c0-12.29-4.9-23.73-8.74-35.19a67.86,67.86,0,0,1-2.42-8.86,50.54,50.54,0,0,1-.84-8.68,49.84,49.84,0,0,1,2.91-17.23c.37-1,.77-2.07,1.19-3.09.36-.1.72-.22,1.08-.35.83-.29,1.64-.64,2.46-1s1.41-.5,2.13-.72a2.46,2.46,0,0,1,.31.48,5,5,0,0,1,.3.93,3.92,3.92,0,0,1-.16,1.92,4,4,0,0,1-.4.89c-.2.3-.46.56-.65.86a1.8,1.8,0,0,0-.33.91,6.93,6.93,0,0,0,.18,1c.08.54-.41.77-.81,1.06a2.4,2.4,0,0,0-1,1.87c0,1.5.85,2.72,1.22,4.12a9.88,9.88,0,0,1,.29,2.6,2.86,2.86,0,0,1-.37,1.54.26.26,0,0,0-.19,0c-.41.25-.9.31-1.31.58a3.07,3.07,0,0,0-1,1.4l-.42.88a1.22,1.22,0,0,0-.16.93c.18.64.45,1.26.65,1.9,0,.13.09.27.14.4a3.14,3.14,0,0,0,.45,3.18.2.2,0,0,0,.34-.2,3.71,3.71,0,0,1-.05-1.78,1.55,1.55,0,0,0,1.5.34,1.37,1.37,0,0,0,.83-1.13,1.69,1.69,0,0,0-.05-.67,2.06,2.06,0,0,0-.12-.35,4.11,4.11,0,0,1-.24-.39c0-.1,0-.09.11-.18a1.71,1.71,0,0,1,.33-.17,1.9,1.9,0,0,1,1.35,0c.19.09.33.21.5.3a2.44,2.44,0,0,0-.1.24,1.33,1.33,0,0,0,.1,1.2,14.23,14.23,0,0,0-1.23,2.27,1.75,1.75,0,0,0,.54,2c-.17.41-.34.83-.53,1.24-.26.58-.56,1.14-.83,1.72a5.65,5.65,0,0,0-.66,1.77.1.1,0,0,0,.17.07,6.7,6.7,0,0,0,.88-1.62c.28-.59.56-1.18.89-1.74.2-.35.44-.69.67-1a1.86,1.86,0,0,0,.44.23,2.93,2.93,0,0,0,1,.19,1.2,1.2,0,0,0,.82-.57,2.08,2.08,0,0,0,.47-1c.06-.37,0-.78,0-1.15a3,3,0,0,1,.5-.86,5.4,5.4,0,0,0,.44-.82l1.42.52c.06,0,.23.05.27.1s0,.19,0,.25a3.81,3.81,0,0,1-.12,1,3.36,3.36,0,0,0,.22,3,2.8,2.8,0,0,0,1.54,1,6,6,0,0,1,0,.85,11.24,11.24,0,0,1-1,3.82.11.11,0,0,0,.16.13,4.31,4.31,0,0,0,1.07-1.73,11.25,11.25,0,0,0,.8-2.19,6,6,0,0,0,.14-.85,2.07,2.07,0,0,0,.42-.14,1.87,1.87,0,0,0,1-1,2.89,2.89,0,0,0-.11-1.62,3.53,3.53,0,0,1,0-1.17c.42.5.25,1.5.38,2.06a3.11,3.11,0,0,0,1.4,1.89,3.61,3.61,0,0,0,.44.23,9.76,9.76,0,0,1,.13,1.07,10.33,10.33,0,0,1,0,1.76c0,.31-.08.61-.13.91,0,.14,0,.27,0,.41a2,2,0,0,1,0,.49c0,.13.18.18.22.06a3.62,3.62,0,0,1,.24-.43,2.47,2.47,0,0,0,.17-.42c.1-.3.18-.62.25-.93a9.26,9.26,0,0,0,.27-1.89,7.3,7.3,0,0,0,0-.81,1,1,0,0,0,.71-.33,2.87,2.87,0,0,0,.52.47,2.06,2.06,0,0,0,.92.37h.17a5.29,5.29,0,0,1,.2,1,5.7,5.7,0,0,1,0,1.65,8.41,8.41,0,0,1-.19.87c-.06.26-.22.57-.1.82a.25.25,0,0,0,.34.14h0c.25-.1.36-.4.45-.65l.06-.09a5.12,5.12,0,0,0,.3-.57,7.47,7.47,0,0,0,.47-1.3c.06-.22.14-.43.18-.65s0-.43,0-.52.14-.16.19-.24a.85.85,0,0,0,.11-.26h0a2.1,2.1,0,0,0,.13-1.26,3.48,3.48,0,0,0-.18-.63,1.24,1.24,0,0,1-.18-.52,1.17,1.17,0,0,1,.21-.47,2.69,2.69,0,0,0,.22-.62,2.48,2.48,0,0,0,0-1.18,4.47,4.47,0,0,0-1.29-2.07c-.61-.6-1.33-1-1.95-1.64a9.25,9.25,0,0,1-.89-1,11,11,0,0,1-.66-1.1c-.45-.72-.9-1.44-1.34-2.18-1-1.61-1.86-3.25-2.79-4.87-.55-.95-1.08-1.9-1.66-2.84-.25-.41-.52-.82-.75-1.25l-.07-.14a8,8,0,0,1-.24-1.63,7.05,7.05,0,0,1,.3-2.37,23.82,23.82,0,0,1,2.14-4.61c.82-1.48,1.68-2.92,2.54-4.37.44-.74.88-1.48,1.29-2.23a10.49,10.49,0,0,0,1-2.32,5.77,5.77,0,0,0,.07-2.74c-.16-.82-.36-1.62-.49-2.44a12.37,12.37,0,0,0,.63-2.13,5.83,5.83,0,0,0-.08-3,16.31,16.31,0,0,0-1.16-2.68,6.77,6.77,0,0,0-1.27-2,3.79,3.79,0,0,0-.66-.61,2,2,0,0,0-1.18-.36,6.61,6.61,0,0,1-1.26,0,3.28,3.28,0,0,1-1.57-1,5.08,5.08,0,0,0-1.73-1.25,3.44,3.44,0,0,0-1.56-.13l-.67.08a2,2,0,0,0,.14-.25,2.16,2.16,0,0,0,.3-1.65h.66a2.66,2.66,0,0,0,1.8-.65,13.42,13.42,0,0,0,1.46-1.46,4.29,4.29,0,0,0,.92-1.55,1.72,1.72,0,0,0,.85-.16,5.1,5.1,0,0,0,.9-.39,1.9,1.9,0,0,0,1-1.27,1.72,1.72,0,0,0,.87,0,2.72,2.72,0,0,0,1.27-.57,2.9,2.9,0,0,0,.85-1.2,6.08,6.08,0,0,0,.22-.76,4.18,4.18,0,0,0,.09-.53,1.35,1.35,0,0,0,.72-.94,1.27,1.27,0,0,0,.09-.47v-.06s0-.07,0-.11a.22.22,0,0,0,0-.08c.32-.07.64-.11,1-.19a1.86,1.86,0,0,0,.5-.22,1.72,1.72,0,0,0,.27-.27h0l.23,0a.83.83,0,0,0,.5-.16.72.72,0,0,0,.27-.28,2.18,2.18,0,0,1,.8.77,3.91,3.91,0,0,0,1,1.14c.82.5,1.89.52,2.61,1.2a.18.18,0,0,0,.21,0c.44.52.91,1,1.39,1.51l1,1.07a7.56,7.56,0,0,0,1,1,8.19,8.19,0,0,0,1.07.53,1.41,1.41,0,0,1,.7.78,8.29,8.29,0,0,0,.72,1.95,4.72,4.72,0,0,0,1.87,1.33,18.63,18.63,0,0,0,2.4,1,9.4,9.4,0,0,1,2.21,1,5.72,5.72,0,0,1,1.56,1.83,5.36,5.36,0,0,0,1.89,2,6.52,6.52,0,0,0,1.14.43c.31.11.75.21.91.53a.22.22,0,0,0,.17.11c.33.71.66,1.43,1,2.15a1.94,1.94,0,0,0,.73.92c.36.2.73.08,1.11.18s.41.61.56.85a2.33,2.33,0,0,0,.81.75,3.9,3.9,0,0,0,1.19.45,5.4,5.4,0,0,0,.69.08,2.88,2.88,0,0,0,.83,0,.49.49,0,0,0,.41-.53,1.22,1.22,0,0,0-.43-.87c-.23-.21-.55-.29-.79-.5-.09-.08-.09-.12-.07-.24a1.51,1.51,0,0,0,0-.56,1.25,1.25,0,0,0-.49-.71c-.14-.11-.42-.26-.48-.41s.27-.33.45-.37a4.24,4.24,0,0,1,2.37.06,1.54,1.54,0,0,0,1.34,0,2.11,2.11,0,0,0,.43-.37c.11-.11.29-.32.43-.18a.19.19,0,0,0,.27,0,1.7,1.7,0,0,1,.91.77,5.25,5.25,0,0,1,.35,1,3.16,3.16,0,0,0,.33,1c.18.26.53.34.68.62a1.16,1.16,0,0,1,0,.95,10,10,0,0,1-.46,1.06,10.36,10.36,0,0,1-.59,1.09.39.39,0,0,0,0,.51.39.39,0,0,0,.52,0l.14-.14a5.16,5.16,0,0,0,1.49-2.14,9.9,9.9,0,0,0,.32-1.41,5.31,5.31,0,0,0,.11-.8c0-.13,0-.26,0-.39a1.28,1.28,0,0,1,.11.2,3.83,3.83,0,0,1,.23.75,2.65,2.65,0,0,0,.84,1.55,1.18,1.18,0,0,0,.39.19.9.9,0,0,0,.22.06h.06a3.48,3.48,0,0,1,.27.94,11.42,11.42,0,0,1,.29,1.92v.16a.31.31,0,0,0,.59.08.24.24,0,0,1,0-.08,4.06,4.06,0,0,0,.31-2.09s0-.07,0-.11a.21.21,0,0,0,.15-.11,2.79,2.79,0,0,0,.18-.34,2.83,2.83,0,0,0,.08-.4c0-.23.07-.47.09-.7,0-.45.11-.91.12-1.37a2.23,2.23,0,0,0-.41-1.31,2.3,2.3,0,0,1-.25-.46,3.57,3.57,0,0,1-.11-.55,2.17,2.17,0,0,0-.42-.94,2.24,2.24,0,0,1-.31-.38,1.07,1.07,0,0,0-.49-.45c-.28-.17-.59-.31-.87-.48a4.15,4.15,0,0,1-.43-.3l-.1-.09a3,3,0,0,0-.33-.8,7.45,7.45,0,0,0-.54-1.05,5.61,5.61,0,0,0-1.49-1.38,4,4,0,0,0-2.21-.61,7.1,7.1,0,0,0-1.3.08,3.55,3.55,0,0,1-.47.06h0a3.1,3.1,0,0,0-.94-.59,7.73,7.73,0,0,0-1.23-.5,4.84,4.84,0,0,0-2.33.41,7.23,7.23,0,0,1-1.13.2.92.92,0,0,1-.57,0,5,5,0,0,1-.56-.31c-.69-.39-1.38-.76-2.05-1.18-.2-.12-.4-.26-.59-.4a12,12,0,0,1-1.63-2.53c-.5-1.06-.92-2.16-1.5-3.19a9.73,9.73,0,0,0-1-1.48,6.88,6.88,0,0,0-1.56-1.34,7.63,7.63,0,0,1-1.74-1.41c-.24-.29-.45-.61-.68-.9a4.33,4.33,0,0,0-.82-.78,7.63,7.63,0,0,1-1.79-1.61,6.87,6.87,0,0,1-.44-.74c.31-.11.65-.2.67,0a.35.35,0,0,0,.47.28c.38-.21.63-.56,1-.77a.89.89,0,0,1,.58-.05,1.92,1.92,0,0,0,.86-.07,12.61,12.61,0,0,0,1.34-.63,1.15,1.15,0,0,1,1.16,0,.52.52,0,0,0,.63,0c.63-.56,1.25-1.12,1.9-1.66.31-.26.63-.51,1-.76.14-.11.64-.46.72-.1,0,.19.34.34.47.12l.07-.11a4.65,4.65,0,0,1,.61-.72,3.85,3.85,0,0,0,.79.38,6.57,6.57,0,0,1,1.86.76,11.27,11.27,0,0,1,1.46,1.47,17.26,17.26,0,0,1,2.53,3.13,15.82,15.82,0,0,1,.94,2.1c.16.4.32.8.49,1.2a4.41,4.41,0,0,0,.33.65v0a1.45,1.45,0,0,1-.24.59,2.9,2.9,0,0,0-.23.76,2.52,2.52,0,0,0,.23,1.53.52.52,0,0,0,.87.12c.23-.35.45-.7.68-1a1.26,1.26,0,0,1,.31-.34l.19-.07.1,0a1.79,1.79,0,0,0,1.19.68,9.43,9.43,0,0,0,2.25.14c.66,0,1.53-.06,1.78-.8a1.14,1.14,0,0,0-.12-1,1,1,0,0,1-.15-.27,1,1,0,0,1,.12-.44.45.45,0,0,0-.24-.59h0a.54.54,0,0,0,.09-.15.51.51,0,0,0-.19-.56,1.14,1.14,0,0,0-.29-.15h0l0,0a.38.38,0,0,0-.06-.13,2.13,2.13,0,0,0,.25-.5.49.49,0,0,0-.41-.66,1.5,1.5,0,0,0,.27-.68.44.44,0,0,0-.3-.46.3.3,0,0,0,0-.26.79.79,0,0,0-.35-.35.69.69,0,0,0,0-.13.44.44,0,0,0-.28-.3.64.64,0,0,0-.2,0h-.07a2,2,0,0,0,.43-.68c.1-.29-.12-.7-.48-.62a3.72,3.72,0,0,1-.67.08.26.26,0,0,0,0-.33.74.74,0,0,1-.14-.22,1.46,1.46,0,0,0,.21-.48.4.4,0,0,0-.34-.44,2.74,2.74,0,0,0-.49,0,.57.57,0,0,0,0-.36,1,1,0,0,0-.25-.33.88.88,0,0,0-.21-.12h0a.42.42,0,0,0,0-.1.59.59,0,0,1,0-.08h0l0-.05a.43.43,0,0,0,0-.07h0a.4.4,0,0,1,.26.18,1.57,1.57,0,0,0,.33.54,1,1,0,0,0,.63.22c.14,0,.37,0,.46,0h0a1,1,0,0,1,.07.12,1.3,1.3,0,0,0,1,.79,2.75,2.75,0,0,0,.64,0,.77.77,0,0,1,.3,0,2.19,2.19,0,0,0,.1.34.84.84,0,0,0,.56.41,1.19,1.19,0,0,0,.46,0l.23,0h0a1.47,1.47,0,0,0,.19.53.82.82,0,0,0,1.2.15.45.45,0,0,1,.46,0c.21.09.41.22.62.32l.29.15a1,1,0,0,1-.06.22.43.43,0,0,0,.06.44.43.43,0,0,0,.41.17,1.13,1.13,0,0,0,.67-.35l.21.09a1.48,1.48,0,0,0,0,.21.73.73,0,0,0,.41.54,1.14,1.14,0,0,0,1-.09l.84.27.07,0a.6.6,0,0,0,.35.41,1,1,0,0,0,.82-.1l.14,0a3,3,0,0,0,1.43,0c.89-.26,1.32-1.13,1.69-1.9.24-.51.45-1,.64-1.56a6.39,6.39,0,0,0,.24-.74,3.33,3.33,0,0,0,.26-.75,2.6,2.6,0,0,0,0-1.61,3.32,3.32,0,0,0-1-1.15l-1.31-1.18c-.8-.73-1.61-1.44-2.4-2.18A6.89,6.89,0,0,1,209.4,171a4.11,4.11,0,0,1-.31-1.47,4.38,4.38,0,0,1,0-.51l.23-.12a2,2,0,0,1,.45-.21,1.7,1.7,0,0,1,.71-.06l.2,0c.21.07.51-.07.45-.34a.91.91,0,0,1,.18-.78.94.94,0,0,1,.79-.32,1.11,1.11,0,0,0,.51-.14c.18-.11.23-.27.36-.41s.7.18.88.34a.38.38,0,0,0,.58-.15,4,4,0,0,1,1.6-1.55l1.06-.62.59-.35a2.81,2.81,0,0,0,.61-.48.43.43,0,0,0,.09-.16h0l.43-.25c.42-.23.84-.45,1.27-.66a25.93,25.93,0,0,1,2.68-1.09c.91-.32,1.83-.61,2.75-.9a4.54,4.54,0,0,1,2.71-.33l.09,0c.32.13.71-.28.44-.57h0c.05,0,.13-.05.2-.05.22,0,.43.05.65.05a1.15,1.15,0,0,0,.65-.19c.22-.16.24-.37.37-.59s.23-.13.38-.13.53,0,.79,0a7.91,7.91,0,0,0,1.54-.06h.06a14.59,14.59,0,0,1,2.29,0,22.67,22.67,0,0,0,2.45-.38,11.44,11.44,0,0,1,2.55-.05,6.57,6.57,0,0,0,2.5-.13.77.77,0,0,0,.42-.33c.08-.11.1-.23.23-.28.35-.11.78.15,1.11.21a.89.89,0,0,0,.56-.06c.2-.09.27-.27.41-.41a.86.86,0,0,1,.79-.13,4.86,4.86,0,0,1,1.05.57,1.71,1.71,0,0,0,1.14.3,4.06,4.06,0,0,1,2.31.29c.18.1.33.23.51.33a1.22,1.22,0,0,0,.68.13,4.49,4.49,0,0,0,.71-.15,3.07,3.07,0,0,1,.67-.08,5.9,5.9,0,0,1,1.32.17,11.86,11.86,0,0,0,1.31.31,10.07,10.07,0,0,0,1.07.45c.47.2.94.4,1.39.62a7.19,7.19,0,0,1,2.14,1.56l.18.21a.45.45,0,0,0,.79-.33c0-.07,0-.14,0-.21a6.19,6.19,0,0,0-1.87-2.93,17.06,17.06,0,0,0-1.47-1.34,8.15,8.15,0,0,0-.76-.55l-.17-.12a.34.34,0,0,0,.12-.2c.1-.43.1-.89.17-1.33,0-.22.12-.67.42-.64a.49.49,0,0,0,.51-.66,3.38,3.38,0,0,1-.26-.69,2.76,2.76,0,0,0-.1-.75,4,4,0,0,0-1.08-1.16l-.22-.2.17,0a2.58,2.58,0,0,1,.38,0l.76.11a1.34,1.34,0,0,0,.84-.06.43.43,0,0,0,.22-.53.51.51,0,0,0,0-.13,4.34,4.34,0,0,0-.11-.61,1.08,1.08,0,0,1,0-.19h0l.13,0a.93.93,0,0,0,.43-.88,7.47,7.47,0,0,0-.35-1,4.17,4.17,0,0,1-.1-.6v-.32a5.07,5.07,0,0,1,.58.08,6.21,6.21,0,0,1,.85.21.45.45,0,0,0,.53-.14,2.34,2.34,0,0,0,.24-1.08,0,0,0,0,1,0,0h0s.12,0,.15,0c.2.06.38.15.57.2a1.49,1.49,0,0,0,1.13-.17,1.18,1.18,0,0,0,.56-.7,7,7,0,0,1,2.47-1.75,14.89,14.89,0,0,1,4.13-.91,35.32,35.32,0,0,1,4.6-.32c.37,0,.73,0,1.09.07a1.31,1.31,0,0,0,.91-.16.74.74,0,0,0,.26-.79.4.4,0,0,1,.28-.52c.6-.28,1.32,0,1.92-.34a5.66,5.66,0,0,0,.47-.34,1,1,0,0,1,.48-.07l1.21,0h.22a.42.42,0,0,0,.1-.8.25.25,0,0,1-.13-.09.42.42,0,0,1,0-.18.45.45,0,0,1,.23-.39,3.57,3.57,0,0,1,1.72-.28l2.24-.15.4,0c1.44.23,2.9.31,4.34.44.77.08,1.54.18,2.31.24a6.1,6.1,0,0,1,2.15.43.4.4,0,0,0,.54-.42c0-.12.24-.22.33-.25a2.68,2.68,0,0,1,.69-.05,10.45,10.45,0,0,1,1.58.16,9.26,9.26,0,0,1,2.83,1l.12.06a.52.52,0,0,0,.4-.95Zm-188,56h0s0,.16,0,0Zm62.7-29.39h0c-.41,0-.81,0-1.22-.07a16.27,16.27,0,0,1-2.4-.41,16.78,16.78,0,0,0-4.75-.9,4.34,4.34,0,0,0-1.08.16,3.27,3.27,0,0,1,1.37-1,6.22,6.22,0,0,1,3.5,0,17.46,17.46,0,0,1,4.67,2.14Zm17.44,43.51h0C194.36,208.89,194.21,208.92,194.25,208.81Z"/></g></g></svg>