<svg xmlns="http://www.w3.org/2000/svg" viewBox="0 0 29.39 30.39"><defs><style>.cls-1{fill:#fff;}</style></defs><g id="Layer_2" data-name="Layer 2"><g id="OBJECTS"><path class="cls-1" d="M29.39,15.23a1,1,0,0,1-.65,1l-6.17,2.37a8,8,0,0,0-4.68,4.76l-2.34,6.46a1.48,1.48,0,0,1-.08.13l-.06.1a.86.86,0,0,1-.13.14,1,1,0,0,1-.24.16l-.16.05-.17,0-.18,0-.17-.05a1.07,1.07,0,0,1-.25-.16L14,30a.22.22,0,0,1-.05-.08.75.75,0,0,1-.09-.15L11.5,23.33a8,8,0,0,0-4.66-4.76L.67,16.2a1,1,0,0,1-.67-1,1,1,0,0,1,.72-1l5.65-1.78a8,8,0,0,0,5.19-5.08L13.86.6A1.06,1.06,0,0,1,14,.39a.47.47,0,0,1,.09-.12.89.89,0,0,1,.32-.21l.12,0a.68.68,0,0,1,.4,0,.35.35,0,0,1,.12,0,1.17,1.17,0,0,1,.3.19l.09.11a.92.92,0,0,1,.13.24l2.3,6.79A8,8,0,0,0,23,12.47l5.64,1.78A1,1,0,0,1,29.39,15.23Z"/></g></g></svg>