<svg xmlns="http://www.w3.org/2000/svg" viewBox="0 0 390.53 346.12"><defs><style>.cls-1{fill:#fff;}</style></defs><g id="Layer_2" data-name="Layer 2"><g id="Layer_1-2" data-name="Layer 1"><path class="cls-1" d="M378.41,214.09c-14.1-6.4-44.56-5-110,35.23a3,3,0,0,0-.87-1.83s-.7-2.81-6.69-2.51c51.91-55.24,79.71-64.68,94-62.43,9.12,1.43,12,7.72,12.14,8a2.25,2.25,0,0,0,4.12-1.79c-.15-.35-3.85-8.71-15.37-10.6-15.77-2.6-46.28,7.54-102.36,68.29-1.63.47-3.45,1.09-5.48,1.88,48.83-101.69,80.93-177.92,71.29-219.69l.1,0a52.26,52.26,0,0,0-2.2-7.15c-.33-.84-.75-1.6-1.12-2.4a40.5,40.5,0,0,0-2.84-5.24c-.47-.72-.94-1.44-1.45-2.12a37.56,37.56,0,0,0-5.45-6C300.38.57,291.88-.88,281.72.48c-30.49,4.08-75.9,33.45-110.12,64.69a277.92,277.92,0,0,0-29.51,31c-9.53,12-15.88,23-17.38,31.51a21.59,21.59,0,0,0-.33,4.07,43.08,43.08,0,0,0,.9,7.27c.15.76.36,1.55.55,2.33.44,1.82,1,3.66,1.6,5.55.28.85.56,1.69.88,2.55q1.23,3.28,2.77,6.66c.22.49.4,1,.64,1.46,1.27,2.7,2.7,5.44,4.22,8.19.52,1,1.09,1.9,1.64,2.86q1.62,2.82,3.37,5.66c.67,1.09,1.35,2.18,2.05,3.28,1.2,1.88,2.44,3.75,3.7,5.63.65.95,1.27,1.91,1.92,2.86.07.09.12.18.19.28v0c21.26,30.82,48.24,59.38,45.28,64.09-3.9,6.21-52-57.75-81.06-78.13h0l0,0c-1.48-1-2.89-1.92-4.25-2.71l-.77-.44a31.55,31.55,0,0,0-4-1.91l-.06,0a15.91,15.91,0,0,0-3.3-.85c-.27,0-.52-.07-.78-.09a8,8,0,0,0-2.88.2,15.51,15.51,0,0,0-8.86,7.3,35.54,35.54,0,0,0-3.38,7.94c-.45,1.46-.85,3-1.21,4.51-2.91,12.34-3.7,26.67-10.2,32.06a9.51,9.51,0,0,1-6.06,2.2c-19.66.45-55.75-33.15-66-14.11s43.53,9.06,66.07,27.91-13.61,32.86,3.39,49.32a22,22,0,0,0,4.56,3.22c.54.3,1.15.57,1.74.85a41.74,41.74,0,0,0,4.2,1.75c.71.25,1.43.5,2.18.74q2.53.78,5.33,1.42c.6.14,1.16.3,1.78.43q3.72.78,7.71,1.38c.81.12,1.64.22,2.46.33,2,.27,3.91.52,5.91.75,1.13.13,2.25.25,3.39.36,1.76.18,3.51.35,5.27.51,6.53.6,13,1.11,18.77,1.7,12.51,1.29,22.15,3.06,23.44,7.45.1.37.49.49.74.74-20.3,15.8-32.89,27.91-39.89,35.37a3.25,3.25,0,0,0,3.48,5.36c15.78-5.49,48.74-19.37,99.48-52.31,29.77-19.32,41.07-30.94,45.09-37.7,66.52-41.63,96.57-43.76,110-37.77,8.43,3.75,9.6,10.57,9.65,10.86a2.25,2.25,0,0,0,2.55,1.88,2.23,2.23,0,0,0,1.89-2.54C390.45,228,389.05,218.91,378.41,214.09Z"/></g></g></svg>