<svg xmlns="http://www.w3.org/2000/svg" xmlns:xlink="http://www.w3.org/1999/xlink" viewBox="0 0 352.05 235.31"><defs><style>.cls-1{isolation:isolate;}.cls-2{mix-blend-mode:multiply;fill:url(#linear-gradient);}</style><linearGradient id="linear-gradient" x1="176.02" y1="-14.31" x2="176.02" y2="226.18" gradientUnits="userSpaceOnUse"><stop offset="0" stop-color="#f9dfea"/><stop offset="1" stop-color="#ec96ca"/></linearGradient></defs><g class="cls-1"><g id="Layer_2" data-name="Layer 2"><g id="Graphic_Elements" data-name="Graphic Elements"><path class="cls-2" d="M342.52,6.75c-5.85-1.83-12.19-.46-18.06,1.31-11,3.31-21.5,8-31.9,12.82C275.19,29,258.09,37.62,241,46.28c-17.33,8.77-35.34,18.15-47.34,33.18a14.37,14.37,0,0,0-5-5.1,1.6,1.6,0,0,1-.74-1.26c-.34-5-2-10.72-5.74-13.44,4.72-7.9,12.08-14,19.63-19.15,9-6.16,18.9-11.53,26.73-19.25a.75.75,0,0,0,.39-.19,14.61,14.61,0,0,0,2.36-2.73c4.1-4.77,7.14-10.73,6.68-17.17A.83.83,0,0,0,237.26,0c-1.95-.17-3.06,1.71-3.34,3.38-.35,2.1-.5,4.22-.92,6.31a21.51,21.51,0,0,1-3,7.7,71.58,71.58,0,0,1-13.34,11.4c-9.37,6.53-19.55,12-27.8,20a49.33,49.33,0,0,0-8.07,10,9.38,9.38,0,0,0-6.8-.35l-.56.17a49.66,49.66,0,0,0-8-9.86c-8.25-8-18.43-13.49-27.8-20a71.26,71.26,0,0,1-13.34-11.4,21.51,21.51,0,0,1-3-7.7c-.42-2.09-.58-4.21-.92-6.31-.28-1.67-1.39-3.55-3.34-3.38a.83.83,0,0,0-.67,1.16c-.46,6.44,2.58,12.4,6.68,17.17a14.61,14.61,0,0,0,2.36,2.73.75.75,0,0,0,.39.19c7.82,7.72,17.72,13.09,26.73,19.25,7.4,5.06,14.63,11,19.36,18.69-3.1,1.24-5.94,3.34-6.87,6.69a9.63,9.63,0,0,0,.35,5.86h0c-.13.62-.22,1.1-.35,1.72l-.27.28a5.83,5.83,0,0,0-.57.74,1.55,1.55,0,0,1-.64.55,4,4,0,0,0-.68.41,14.05,14.05,0,0,0-3.11,3.21c-12-16.15-30.75-26-48.79-35.09C94,34.92,76.85,26.27,59.49,18.18c-10.4-4.85-20.92-9.5-31.9-12.82C21.72,3.59,15.38,2.22,9.52,4.05S-1.25,12,.28,17.91C1.34,22,5,24.82,8,27.79S13.7,35,12.3,39c-.52,1.49-1.57,2.74-2.11,4.23-1,2.7-.13,5.79,1.48,8.16a31,31,0,0,0,6.13,6c6.9,5.71,13.59,12.41,16.13,21,1.59,5.36,1.57,11.44,5,15.88,3.71,4.86,10.72,6.64,13.64,12,1.87,3.43,2,8.2,5.42,10.11,2.1,1.18,4.7.76,7.06.26q8.25-1.76,16.3-4.32l-.12.76c-2.63,3.6-6.7,6.27-9.93,9.24-5.2,4.79-8.74,11-7.48,18.22A3.16,3.16,0,0,0,65.51,143a39,39,0,0,0,5.76,26.18c3.06,4.75,7.21,8.91,9.1,14.23a19.07,19.07,0,0,1-1.43,15.67c-2,3.42-5,6.17-6.82,9.69s-2,8.45,1.14,10.84,7.52,1.16,10.88,2.93c4.47,2.35,5.94,9.28,11,10,3.49.5,6.54-2.63,7.77-5.93s1.3-6.95,2.48-10.28,4.08-6.54,7.59-6.23c1.84.16,3.5,1.26,5.34,1.34,3.82.15,6.28-3.87,7.89-7.33q12.19-26.17,24.38-52.37c3.1-6.66,6.24-13.44,7.21-20.72a52,52,0,0,0,.39-5.45,4.37,4.37,0,0,0,.54-1.68,41.22,41.22,0,0,1,3.23-12c.43-1,.88-1.92,1.38-2.86.13.31.27.62.39.93,0,.11.07.21.1.31.61,2.4,1.15,4.8,1.66,7.21a.64.64,0,0,1,0,.2c.9,8.72-1.25,18.11-1.34,26.56A93.75,93.75,0,0,0,171,180.48c2.08,5.12,9,5.58,10.9,0a206.08,206.08,0,0,0,7-23.21,96.2,96.2,0,0,0,1.85-11.94c.35-3.84.73-8.25-.2-12a9,9,0,0,0-1.54-3.23l-.09-.33a25.36,25.36,0,0,0-1.78-4,1.61,1.61,0,0,1-.18-.86,41.78,41.78,0,0,1,2.31-12.08c.29.59.57,1.19.83,1.78a41.22,41.22,0,0,1,3.23,12,4.38,4.38,0,0,0,.55,1.68,52,52,0,0,0,.39,5.45c1,7.28,4.11,14.06,7.21,20.72q12.18,26.19,24.37,52.37c1.61,3.46,4.08,7.48,7.89,7.32,1.84-.07,3.51-1.17,5.35-1.33,3.51-.31,6.42,2.9,7.59,6.23s1.24,7,2.47,10.28,4.28,6.43,7.78,5.93c5-.7,6.47-7.63,11-10,3.36-1.77,7.86-.63,10.88-2.93s2.95-7.34,1.13-10.85-4.84-6.26-6.81-9.68a19.07,19.07,0,0,1-1.43-15.67c1.89-5.32,6-9.48,9.09-14.23a39,39,0,0,0,5.77-26.18,3.2,3.2,0,0,0,1.73-2.47c1.26-7.23-2.28-13.43-7.48-18.22-3.23-3-7.31-5.64-9.93-9.24,0-.25-.08-.51-.13-.76,5.36,1.71,10.81,3.15,16.31,4.32,2.35.5,4.95.92,7.06-.26,3.4-1.91,3.55-6.68,5.41-10.11,2.92-5.36,9.94-7.14,13.64-12,3.4-4.44,3.38-10.52,5-15.88,2.54-8.59,9.22-15.29,16.13-21a31.18,31.18,0,0,0,6.12-6c1.62-2.38,2.48-5.47,1.49-8.16-.54-1.49-1.59-2.74-2.12-4.24-1.4-4,1.32-8.23,4.33-11.21s6.63-5.78,7.69-9.88C353.3,14.67,348.37,8.57,342.52,6.75Zm-107.36-1c.13-1.06.14-3.38,1.25-4.05a19.54,19.54,0,0,1-2.17,9.45A52,52,0,0,0,235.16,5.78ZM118,1.73c1.12.67,1.13,3,1.26,4.05a52,52,0,0,0,.92,5.4A19.66,19.66,0,0,1,118,1.73Z"/></g></g></g></svg>