<svg xmlns="http://www.w3.org/2000/svg" xmlns:xlink="http://www.w3.org/1999/xlink" viewBox="0 0 246.57 279.98"><defs><style>.cls-1{isolation:isolate;}.cls-2{mix-blend-mode:multiply;}.cls-3{fill:url(#linear-gradient);}.cls-4{fill:url(#linear-gradient-2);}.cls-5{fill:url(#linear-gradient-3);}</style><linearGradient id="linear-gradient" x1="123.28" y1="28.76" x2="123.28" y2="280.64" gradientUnits="userSpaceOnUse"><stop offset="0" stop-color="#efa4be"/><stop offset="1" stop-color="#c1a9c8"/></linearGradient><linearGradient id="linear-gradient-2" x1="96.1" y1="28.76" x2="96.1" y2="280.64" xlink:href="#linear-gradient"/><linearGradient id="linear-gradient-3" x1="111.31" y1="28.76" x2="111.31" y2="280.64" xlink:href="#linear-gradient"/></defs><g class="cls-1"><g id="Layer_2" data-name="Layer 2"><g id="Graphic_Elements" data-name="Graphic Elements"><g class="cls-2"><path class="cls-3" d="M241.81,220.36c.8-2.6,2.75-4.69,3.79-7.21,1.92-4.62.48-10.12-2.52-14.14-2.63-3.53-6.65-7-5.87-11.36.35-2,1.65-3.58,2.48-5.39,2.41-5.26.47-11.7-3.26-16.13s-9-7.27-14.06-10c-21.63-11.64-48.06-12.12-72.44-6.53h0a1.37,1.37,0,0,1,.78-2c8.3-3,16.93-5.35,25.64-6.08,12.22-1,24.19-.2,36.32-.07a1.61,1.61,0,0,0,1-2.87,16.27,16.27,0,0,1-5.28-6.55c-1.68-4.26.41-10.26,5-10.81,2.82-.33,5.95,1.42,8.25-.83a4.54,4.54,0,0,0,1.22-3.83c-.39-3.17-2.68-5.3-4.47-7.7-7.25-9.67-5.37-25,4-32.58,2.69-2.19,6.13-4.16,5.81-8.16a7.23,7.23,0,0,0-2.8-5c-4.89-3.95-11.76-3.57-16.3-8.09a7.62,7.62,0,0,1-2.32-4.85c-.26-4,2.79-5.81,5.58-7.39l21.26-12a13.75,13.75,0,0,0,6.39-7.5c2.79-8.34-4.77-13.5-11.52-16.44-13.24-5.75-28.23-9.12-42.13-5.22-15,4.23-26.52,16.26-35.68,28.89-21,29.05-33.55,63.47-39.79,98.94a10.71,10.71,0,0,0-5.45-6.95c-4.08-2.1-7.51-.7-8.84.71a13.16,13.16,0,0,0-2.5,3.81c-11.27-25.77-28-50.14-49.76-72.17C38,48.46,31.11,42.18,22.86,37c-3.39-2.14-7.18-4.16-12.16-4A13.51,13.51,0,0,0,4.2,34.7C-.36,37.43-.27,41.49.23,45c3.46,24,17.48,45.18,39.07,59.66-5.19,4.44-5.13,10.78-1.81,15s8,8,8,13.19c0,2.46-1.06,5-1.15,7.49-.24,6.32,6.82,11.16,15.28,10.53-2.41,5.27-.2,10.5,3.94,14s10,5.61,15.64,7.65l1,.27a6.36,6.36,0,0,0,4.39-.65,5,5,0,0,0,2.14-2.88,31.92,31.92,0,0,1,.8-3.13,9.35,9.35,0,0,1,5-4.66l.5-.2c2.37-.69,2.58-.86.29,1.73a29.19,29.19,0,0,0-4.35,5,17.58,17.58,0,0,0-2.66,11.76,16.2,16.2,0,0,1-.11,4.65c-1,5.76-6,12.09-4.42,17.28s8.63,6,12,10c3.7,4.44,2.44,12.12,5.53,17.21,4.49,7.39,16.3,6.83,22,13.36,2.79,3.21,3.85,7.81,5.93,11.68s6,7.22,10.77,6c1.39-.36,2.8-1.1,4.14-1,1.94.09,3.12,1.79,4.17,3.32a58.39,58.39,0,0,0,14,14.34,16.21,16.21,0,0,0,7.43,3.43,9.58,9.58,0,0,0,8.31-3.12,11.27,11.27,0,0,0,2.23-9.35c-.6-3-2.19-5.48-3.75-7.88l-2.13-3.24q-4.48-6.8-9-13.42t-8.95-13q-4.46-6.37-8.91-12.6c-2.31-3.24-4.62-6.44-6.93-9.63,1.42.17,2.88.28,4.39.32,2.86.08,1.17-5.74,0-8.35-1.42-3.25-3-6.43-4.67-9.56l.27.29c21.65,22.47,44.32,45.85,72.67,58.9,6.67,3.08,13.7,6.22,21.06,5.57a16.09,16.09,0,0,0,12.42-7.21C250.84,237.94,239.05,229.31,241.81,220.36Z"/><path class="cls-4" d="M90.84,86.83a43.29,43.29,0,0,0-2,11.84,45.21,45.21,0,0,0,5.58,22.7,42.72,42.72,0,0,0,8.15,10.52c.41.38,1-.23.62-.62A43.45,43.45,0,0,1,91.56,87.45C93,82.7,95,77.32,92.3,72.61a.36.36,0,0,0-.15-.15c-.27-.46-1.08-.2-.9.37a19.84,19.84,0,0,1,.49,10Z"/><path class="cls-5" d="M116.46,90.65a23.64,23.64,0,0,0,5.46-4.71.47.47,0,0,0-.07-.65v0a.52.52,0,0,0-.62-.35c-2.57.49-3.6,3-5.23,4.79l-.75.69c-.74.48-1.5.95-2.25,1.42a28.66,28.66,0,0,0-8,6.79,21.77,21.77,0,0,0,3.44,29.86c.43.36,1-.25.61-.61a21.16,21.16,0,0,1-7.48-18.42,21.42,21.42,0,0,1,3.67-9.69,25.77,25.77,0,0,1,7.69-6.86l2.56-1.62Z"/></g></g></g></g></svg>