<svg xmlns="http://www.w3.org/2000/svg" viewBox="0 0 41.66 19.81"><defs><style>.cls-1{fill:#fff;}</style></defs><g id="Layer_2" data-name="Layer 2"><g id="Layer_1-2" data-name="Layer 1"><path class="cls-1" d="M14.23,11.68c0,1.39,1.15,1.94,2.45,1.94.85,0,2.14-.24,2.14-1.31S17.17,11,15.55,10.59s-3.29-1-3.29-3c0-2.14,2.13-3.16,4.12-3.16,2.31,0,4.42,1,4.42,3.36H18.45c-.07-1.26-1-1.58-2.18-1.58-.77,0-1.66.31-1.66,1.19s.52.9,3.29,1.58c.8.19,3.27.67,3.27,3,0,1.92-1.59,3.35-4.59,3.35-2.44,0-4.73-1.14-4.69-3.72Z"/><path class="cls-1" d="M27.74,15.15H25L21.42,4.7h2.5l2.46,7.35h0L28.9,4.7h2.5Z"/><polygon class="cls-1" points="41.66 17.54 41.66 19.81 0 19.81 0 4.7 11.31 4.7 11.31 6.64 8.01 6.64 8.01 15.15 5.58 15.15 5.58 6.64 2.27 6.64 2.27 17.54 41.66 17.54"/><polygon class="cls-1" points="41.66 0 41.66 15.15 39.24 15.15 34.65 8.16 34.62 8.16 34.62 15.15 32.35 15.15 32.35 4.7 34.76 4.7 39.36 11.71 39.39 11.71 39.39 2.27 0 2.27 0 0 41.66 0"/></g></g></svg>